<?xml version="1.0" standalone="no"?>
<!DOCTYPE svg PUBLIC "-//W3C//DTD SVG 20010904//EN"
 "http://www.w3.org/TR/2001/REC-SVG-20010904/DTD/svg10.dtd">
<svg version="1.0" xmlns="http://www.w3.org/2000/svg"
 width="273.000000pt" height="318.000000pt" viewBox="0 0 273.000000 318.000000"
 preserveAspectRatio="xMidYMid meet">
<metadata>
Created by potrace 1.16, written by Peter Selinger 2001-2019
</metadata>
<g transform="translate(0.000000,318.000000) scale(0.100000,-0.100000)"
fill="#000000" stroke="none">
<path d="M690 1590 l0 -1590 310 0 310 0 0 1590 0 1590 -310 0 -310 0 0 -1590z"/>
<path d="M1410 1590 l0 -1590 310 0 310 0 0 1590 0 1590 -310 0 -310 0 0
-1590z"/>
<path d="M0 1585 l0 -905 293 2 292 3 0 900 0 900 -292 3 -293 2 0 -905z"/>
<path d="M2120 2121 c0 -286 3 -370 13 -374 10 -4 10 -6 0 -6 -10 -1 -13 -32
-13 -119 0 -81 4 -122 13 -131 10 -11 10 -13 0 -7 -10 6 -13 -21 -13 -118 0
-90 3 -126 13 -129 10 -4 10 -6 0 -6 -9 -1 -13 -20 -13 -60 0 -38 4 -61 13
-64 10 -4 10 -6 0 -6 -10 -1 -13 -33 -13 -127 0 -97 3 -124 13 -118 10 6 10 4
0 -7 -8 -8 -13 -42 -13 -91 l0 -78 305 0 305 0 0 905 0 905 -305 0 -305 0 0
-369z"/>
</g>
</svg>
